<svg width="23" height="21" viewBox="0 0 23 21" fill="none" xmlns="http://www.w3.org/2000/svg">
<g clip-path="url(#clip0_1_27)">
<path d="M12.1389 9.8611V0.940618C12.1389 0.581243 12.4185 0.277771 12.7778 0.277771C17.7172 0.277771 21.7223 4.28281 21.7223 9.22221C21.7223 9.58159 21.4188 9.8611 21.0594 9.8611H12.1389ZM1.27783 11.1389C1.27783 6.29531 4.87558 2.28628 9.54346 1.64739C9.91082 1.59548 10.2223 1.89097 10.2223 2.26232V11.7778L16.4714 18.0269C16.7389 18.2944 16.719 18.7337 16.4115 18.9493C14.8462 20.0674 12.9296 20.7222 10.8612 20.7222C5.57037 20.7222 1.27783 16.4337 1.27783 11.1389ZM22.2973 11.7778C22.6686 11.7778 22.9601 12.0892 22.9122 12.4566C22.6047 14.6887 21.5306 16.6733 19.9613 18.1387C19.7218 18.3623 19.3464 18.3463 19.1148 18.1108L12.7778 11.7778H22.2973Z" fill="#FFF7F7"/>
</g>
<defs>
<clipPath id="clip0_1_27">
<rect width="23" height="20.4444" fill="white" transform="translate(0 0.277771)"/>
</clipPath>
</defs>
</svg>
